<?xml version="1.0" encoding="utf-8"?>

<!DOCTYPE svg PUBLIC "-//W3C//DTD SVG 1.1//EN" "http://www.w3.org/Graphics/SVG/1.1/DTD/svg11.dtd">
<!-- Uploaded to: SVG Repo, www.svgrepo.com, Generator: SVG Repo Mixer Tools -->
<svg height="800px" width="800px" version="1.1" id="_x32_" xmlns="http://www.w3.org/2000/svg" xmlns:xlink="http://www.w3.org/1999/xlink" 
	 viewBox="0 0 512 512"  xml:space="preserve">
<style type="text/css">
	.st0{fill:#000000;}
</style>
<g>
	<path class="st0" d="M182.248,341.784c-3.692-24.802-26.77-41.91-51.562-38.228c-24.793,3.652-41.93,26.75-38.25,51.553
		l2.533,17.066c-9.875,2.3-16.532,11.751-15.019,21.959l7.594,51.229c1.513,10.198,10.621,17.309,20.738,16.653l1.674,11.247
		c3.672,24.803,26.74,41.92,51.552,38.239c24.793-3.672,41.911-26.74,38.249-51.552L182.248,341.784z"/>
	<path class="st0" d="M417.033,372.175l2.532-17.066c3.682-24.803-13.455-47.901-38.248-51.553
		c-24.793-3.681-47.872,13.426-51.563,38.228l-17.51,118.165c-3.662,24.812,13.455,47.88,38.248,51.552
		c24.814,3.681,47.882-13.436,51.552-38.239l1.674-11.247c10.117,0.656,19.226-6.456,20.739-16.653l7.594-51.229
		C433.565,383.926,426.908,374.475,417.033,372.175z"/>
	<path class="st0" d="M436.702,75.529C391.927,27.769,328.281-0.091,256,0C183.72-0.091,120.073,27.769,75.3,75.529
		c-44.856,47.7-70.728,114.735-70.688,191.595c0,8.604,0.323,17.339,0.978,26.185c5.246,71.302,17.914,127.968,23.239,151.874
		l40.326-8.978c-5.245-23.542-17.328-77.747-22.372-145.943c-0.574-7.846-0.857-15.563-0.857-23.138
		c0.04-67.721,22.493-123.914,59.481-163.302C142.485,64.484,194.19,41.406,256,41.315c61.801,0.091,113.514,23.17,150.593,62.507
		c36.987,39.387,59.44,95.58,59.48,163.302c0,7.575-0.282,15.292-0.857,23.148c-5.042,68.186-17.127,122.391-22.372,145.933
		l40.326,8.978c5.326-23.906,17.995-80.572,23.24-151.874c0.656-8.857,0.978-17.582,0.978-26.185
		C507.429,190.263,481.557,123.228,436.702,75.529z"/>
</g>
</svg>